<svg xmlns="http://www.w3.org/2000/svg" xmlns:xlink="http://www.w3.org/1999/xlink" width="1500" height="1500" viewBox="0 0 1500 1500">
  <defs>
    <clipPath id="clip-undraw_order_confirmed_re_g0if">
      <rect width="1500" height="1500"/>
    </clipPath>
  </defs>
  <g id="undraw_order_confirmed_re_g0if" clip-path="url(#clip-undraw_order_confirmed_re_g0if)">
    <rect width="1500" height="1500" fill="#fff"/>
    <g id="Group_195" data-name="Group 195" transform="translate(163.61 -355.542)">
      <path id="Path_6712" data-name="Path 6712" d="M385.553,333.568H349.529A10.143,10.143,0,0,1,339.4,323.437v-83.3A10.143,10.143,0,0,1,349.529,230h36.024a10.143,10.143,0,0,1,10.132,10.132v83.3a10.143,10.143,0,0,1-10.132,10.132Z" transform="translate(421.402 493.478)" fill="#b0e0f6"/>
      <path id="Path_6713" data-name="Path 6713" d="M536.157,1056.517H351.535a19.159,19.159,0,0,1-19.138-19.138V292.138A19.159,19.159,0,0,1,351.535,273H536.157a19.159,19.159,0,0,1,19.138,19.138v745.242A19.159,19.159,0,0,1,536.157,1056.517Z" transform="translate(412.641 547.292)" fill="#b0e0f6"/>
      <path id="Path_6714" data-name="Path 6714" d="M487.157,1056.517H302.535a19.159,19.159,0,0,1-19.138-19.138V292.138A19.159,19.159,0,0,1,302.535,273H487.157a19.159,19.159,0,0,1,19.138,19.138v745.242A19.159,19.159,0,0,1,487.157,1056.517Z" transform="translate(351.318 547.292)" fill="#dff1fd"/>
      <path id="Path_6715" data-name="Path 6715" d="M370.553,333.568H334.529A10.143,10.143,0,0,1,324.4,323.437v-83.3A10.143,10.143,0,0,1,334.529,230h36.024a10.143,10.143,0,0,1,10.132,10.132v83.3a10.143,10.143,0,0,1-10.132,10.132Z" transform="translate(402.629 493.478)" fill="#dff1fd"/>
      <path id="Path_6716" data-name="Path 6716" d="M350.8,390.551H308.026a5.635,5.635,0,0,1-5.629-5.629V319.629A5.635,5.635,0,0,1,308.026,314H350.8a5.635,5.635,0,0,1,5.629,5.629v65.293a5.635,5.635,0,0,1-5.629,5.629Z" transform="translate(375.097 598.603)" fill="#fff"/>
      <path id="Path_6717" data-name="Path 6717" d="M387.8,390.551H345.026a5.635,5.635,0,0,1-5.629-5.629V319.629A5.635,5.635,0,0,1,345.026,314H387.8a5.635,5.635,0,0,1,5.629,5.629v65.293a5.635,5.635,0,0,1-5.629,5.629Z" transform="translate(421.401 598.603)" fill="#fff"/>
      <path id="Path_6718" data-name="Path 6718" d="M350.8,443.551H308.026a5.635,5.635,0,0,1-5.629-5.629V372.629A5.635,5.635,0,0,1,308.026,367H350.8a5.635,5.635,0,0,1,5.629,5.629v65.293a5.635,5.635,0,0,1-5.629,5.629Z" transform="translate(375.097 664.931)" fill="#fff"/>
      <path id="Path_6719" data-name="Path 6719" d="M387.8,443.551H345.026a5.635,5.635,0,0,1-5.629-5.629V372.629A5.635,5.635,0,0,1,345.026,367H387.8a5.635,5.635,0,0,1,5.629,5.629v65.293a5.635,5.635,0,0,1-5.629,5.629Z" transform="translate(421.401 664.931)" fill="#fff"/>
      <path id="Path_6720" data-name="Path 6720" d="M350.8,496.551H308.026a5.635,5.635,0,0,1-5.629-5.629V425.629A5.635,5.635,0,0,1,308.026,420H350.8a5.635,5.635,0,0,1,5.629,5.629v65.293a5.635,5.635,0,0,1-5.629,5.629Z" transform="translate(375.097 731.26)" fill="#fff"/>
      <path id="Path_6721" data-name="Path 6721" d="M387.8,496.551H345.026a5.635,5.635,0,0,1-5.629-5.629V425.629A5.635,5.635,0,0,1,345.026,420H387.8a5.635,5.635,0,0,1,5.629,5.629v65.293a5.635,5.635,0,0,1-5.629,5.629Z" transform="translate(421.401 731.26)" fill="#fff"/>
      <path id="Path_6722" data-name="Path 6722" d="M350.8,549.551H308.026a5.635,5.635,0,0,1-5.629-5.629V478.629A5.635,5.635,0,0,1,308.026,473H350.8a5.635,5.635,0,0,1,5.629,5.629v65.293A5.635,5.635,0,0,1,350.8,549.551Z" transform="translate(375.097 797.589)" fill="#fff"/>
      <path id="Path_6723" data-name="Path 6723" d="M387.8,549.551H345.026a5.635,5.635,0,0,1-5.629-5.629V478.629A5.635,5.635,0,0,1,345.026,473H387.8a5.635,5.635,0,0,1,5.629,5.629v65.293A5.635,5.635,0,0,1,387.8,549.551Z" transform="translate(421.401 797.589)" fill="#fff"/>
      <path id="Path_6724" data-name="Path 6724" d="M350.8,602.551H308.026a5.635,5.635,0,0,1-5.629-5.629V531.629A5.635,5.635,0,0,1,308.026,526H350.8a5.635,5.635,0,0,1,5.629,5.629v65.293A5.635,5.635,0,0,1,350.8,602.551Z" transform="translate(375.097 863.918)" fill="#fff"/>
      <path id="Path_6725" data-name="Path 6725" d="M387.8,602.551H345.026a5.635,5.635,0,0,1-5.629-5.629V531.629A5.635,5.635,0,0,1,345.026,526H387.8a5.635,5.635,0,0,1,5.629,5.629v65.293A5.635,5.635,0,0,1,387.8,602.551Z" transform="translate(421.401 863.918)" fill="#fff"/>
    </g>
    <path id="Path_6673" data-name="Path 6673" d="M686.217,348.212h-4.826v-132.2A76.513,76.513,0,0,0,604.878,139.5H324.8a76.513,76.513,0,0,0-76.513,76.513V941.266a76.513,76.513,0,0,0,76.513,76.513H604.878a76.513,76.513,0,0,0,76.513-76.513V442.313h4.826Z" transform="translate(-67.891 107.5)" fill="#b0e0f6"/>
    <path id="Path_6674" data-name="Path 6674" d="M599.88,151.783H563.32a27.147,27.147,0,0,1-25.134,37.4H377.731a27.147,27.147,0,0,1-25.134-37.4H318.45a57.139,57.139,0,0,0-57.139,57.139V933.111A57.139,57.139,0,0,0,318.45,990.25H599.88a57.139,57.139,0,0,0,57.139-57.139h0V208.922a57.139,57.139,0,0,0-57.139-57.139Z" transform="translate(-59.805 115.124)" fill="#fff"/>
    <path id="Path_6675" data-name="Path 6675" d="M810.989,682.741H193.513a1.621,1.621,0,1,1,0-3.241H810.989a1.621,1.621,0,1,1,0,3.241Z" transform="translate(-102.891 442.663)" fill="#2f2e41"/>
    <circle id="Ellipse_44" data-name="Ellipse 44" cx="136.86" cy="136.86" r="136.86" transform="translate(262.5 533.515)" fill="#028ffa"/>
    <path id="Path_395" data-name="Path 395" d="M392.815,472.81a14.194,14.194,0,0,1-8.539-2.838l-.153-.115-32.164-24.6a14.293,14.293,0,1,1,17.393-22.687l20.833,15.976,49.23-64.226a14.287,14.287,0,0,1,20.031-2.646l0,0-.306.424.314-.424A14.3,14.3,0,0,1,462.1,391.71L404.2,467.22a14.3,14.3,0,0,1-11.369,5.574Z" transform="translate(-7.018 249.771)" fill="#fff"/>
    <path id="Path_6676" data-name="Path 6676" d="M888.822,754.937a42.554,42.554,0,0,1,5.844-7.447c.915-.949,1.88-1.843,2.875-2.713a45.609,45.609,0,0,1,75.2,25.942c6.684-24.719-10.715-49.067-28.209-67.769s-37.508-39.206-37.407-64.824c.049-14.255,7.022-26.972,17.551-36.4.325-.286.65-.571.981-.846A66.563,66.563,0,0,1,971.5,584.9c31.115,1.667,58.284,22.579,77.151,47.385,30.37,39.913,43.678,95.938,22.417,141.373-18.7,39.96-58.586,63.689-99.291,82.766q-8.526,4-17.018,7.752c-.037.01-.078.037-.116.047-.272.12-.545.239-.8.363-1.168.515-2.337,1.031-3.5,1.54l.536.351,1.674,1.084c-.58-.351-1.154-.692-1.734-1.044-.173-.106-.355-.206-.527-.313-19.992-12-40.263-24.686-54.074-43.414C881.9,803.346,876.142,775.494,888.822,754.937Z" transform="translate(325.322 383.919)" fill="#b0e0f6"/>
    <path id="Path_6677" data-name="Path 6677" d="M1017.285,703.66A113.157,113.157,0,0,1,1026,735.311a98.258,98.258,0,0,1-1.185,29.192,125.887,125.887,0,0,1-25.246,54,181.18,181.18,0,0,1-32.708,31.8q-8.526,4-17.018,7.752c-.037.01-.078.036-.116.047-.272.12-.545.24-.8.363-1.168.515-2.337,1.031-3.5,1.54l.536.351,1.674,1.083c-.58-.351-1.154-.692-1.735-1.044-.172-.106-.355-.206-.527-.313a99.266,99.266,0,0,0-55.634-118.714c.915-.949,1.88-1.843,2.875-2.713a104.715,104.715,0,0,1,16.05,9.165,102.615,102.615,0,0,1,38.829,51.44,104.914,104.914,0,0,1,2.277,58.65c1-.656,2.011-1.329,2.99-2,18.625-12.56,35.79-27.644,48.719-46.142a117.112,117.112,0,0,0,20.78-52.809c2.478-20.8-2.726-41.253-12.012-59.811a245.135,245.135,0,0,0-38.4-54.568,278.548,278.548,0,0,0-51.5-44.28,2,2,0,0,1-.593-2.7,1.7,1.7,0,0,1,.981-.846,1.483,1.483,0,0,1,1.263.255c2.334,1.558,4.649,3.129,6.935,4.747a281.708,281.708,0,0,1,51.481,47.025C995.051,663.894,1008.371,682.9,1017.285,703.66Z" transform="translate(330.246 390.038)" fill="#fff"/>
    <circle id="Ellipse_44-2" data-name="Ellipse 44" cx="29.065" cy="29.065" r="29.065" transform="translate(910.855 252.417)" fill="#dff1fd"/>
    <circle id="Ellipse_44-3" data-name="Ellipse 44" cx="17.721" cy="17.721" r="17.721" transform="translate(1283.611 664.068)" fill="#dff1fd"/>
    <circle id="Ellipse_44-4" data-name="Ellipse 44" cx="17.721" cy="17.721" r="17.721" transform="translate(764.996 712.688)" fill="#dff1fd"/>
    <path id="Path_6678" data-name="Path 6678" d="M626.728,761.741H1244.2a1.621,1.621,0,1,0,0-3.241H626.728a1.621,1.621,0,0,0,0,3.241Z" transform="translate(165.994 491.696)" fill="#2f2e41"/>
    <path id="Path_6679" data-name="Path 6679" d="M1001.715,246.5a23.746,23.746,0,0,0-45.6-12.035l-50.107,57.444,14.7,41.063L971.1,265.849a23.618,23.618,0,0,0,30.613-19.35Z" transform="translate(340.34 157.115)" fill="#f68389"/>
    <path id="Path_6680" data-name="Path 6680" d="M669.8,316.19,836.129,138.68l-22.435-35.668L605.076,279.445Z" transform="translate(464.555 310.937)" fill="#fec230"/>
    <circle id="Ellipse_1033" data-name="Ellipse 1033" cx="58.344" cy="58.344" r="58.344" transform="translate(1038.889 402.585)" fill="#2f2e41"/>
    <path id="Path_6681" data-name="Path 6681" d="M816.894,264.119A122.336,122.336,0,0,1,861.4,235.337c10.759-3.986,22.47-6.449,33.718-4.185s21.886,10.045,25.024,21.081c2.566,9.024-.083,18.741-4.066,27.236s-9.3,16.373-12.519,25.185A57.482,57.482,0,0,0,961.4,381.738c-11.052,1.482-21.24,6.676-32.042,9.44s-23.553,2.577-31.58-5.162c-8.494-8.188-8.664-21.5-8.253-33.293l1.832-52.583c.311-8.939.577-18.164-2.647-26.507s-10.884-15.649-19.828-15.573c-6.779.057-12.778,4.164-18.214,8.214s-11.19,8.37-17.942,8.973-14.461-4.394-13.956-11.154Z" transform="translate(285.029 163.85)" fill="#2f2e41"/>
    <path id="Path_6682" data-name="Path 6682" d="M688.8,551.834A23.746,23.746,0,0,1,670.909,508.2l50.4-57.183,42.632,9.21-59.961,58.73A23.618,23.618,0,0,1,688.8,551.834Z" transform="translate(186.84 300.848)" fill="#f68389"/>
    <path id="Path_6683" data-name="Path 6683" d="M650.475,281.786,524.848,439.477,486.555,421.9,634.214,192.012Z" transform="translate(390.992 366.177)" fill="#fec230"/>
    <path id="Path_6684" data-name="Path 6684" d="M537.314,541.391l-29.94-.47,3.6,102.047h26.334Z" transform="translate(403.914 582.735)" fill="#f68389"/>
    <path id="Path_6685" data-name="Path 6685" d="M754.4,738.083l-51.863,0h0a33.053,33.053,0,0,0-33.051,33.049v1.076l84.915,0Z" transform="translate(193.537 479.022)" fill="#2f2e41"/>
    <path id="Path_6686" data-name="Path 6686" d="M660.691,524.511l-32.707,21,65.423,78.708,22.161-14.228Z" transform="translate(478.773 572.549)" fill="#f68389"/>
    <path id="Path_6687" data-name="Path 6687" d="M897.075,710.049l-43.643,28.019h0a33.053,33.053,0,0,0-9.955,45.669l.58.9,71.456-45.876Z" transform="translate(298.273 461.624)" fill="#2f2e41"/>
    <path id="Path_6688" data-name="Path 6688" d="M945.327,565.47S872.656,324.107,849.3,320.846s-60.983,61.931-60.983,61.931c-48.787,62.247-99.094,263.879-99.094,263.879s83.864,5.248,145.169,37.865,133.653-1.651,133.653-1.651Z" transform="translate(205.789 219.983)" fill="#fec230"/>
    <path id="Path_6689" data-name="Path 6689" d="M945.327,565.469S872.656,324.107,849.3,320.845s-51.426,62.592-51.426,62.592c-24.31,100.482-108.651,263.218-108.651,263.218s83.864,5.248,145.169,37.865,133.653-1.651,133.653-1.651Z" transform="translate(205.789 219.983)" opacity="0.1" style="isolation: isolate"/>
    <path id="Path_6690" data-name="Path 6690" d="M691.306,294.126V415.409L705.579,591.1l71.31,132.9L742.854,748.3l-97.24-126.412-38.46-125.52-60.4,277.863-45.379-3.241L532.89,385.739l59.8-108.439Z" transform="translate(400.189 419.112)" fill="#028ffa"/>
    <path id="Path_6691" data-name="Path 6691" d="M775.8,375.9c-22.689,22.689-1.621,47-1.621,47L748.25,481.246l102.1,27.551,35.681-159.439-24.31-25.931c-48.62-1.621-48.647-2.628-48.647-2.628C804.558,329.136,775.8,375.9,775.8,375.9Z" transform="translate(242.424 220.028)" fill="#dff1fd"/>
    <path id="Path_6692" data-name="Path 6692" d="M871.748,331.491a43.57,43.57,0,0,0-61.225,9.583c-25.668,35.74-49.4,93.45-16.7,165.425,52.508,115.569,98.2,174.732,116.778,174.726a7.389,7.389,0,0,0,2.387-.375c11.434-3.879,27.966-23.227,30.959-40.278,1.072-6.1.817-14.6-6.482-20.44-20.964-16.768-58.6-68.978-70.34-137.7-6.488-37.972,6.094-72.561,17.792-94.89a43.562,43.562,0,0,0-12.6-55.636h0Z" transform="translate(260.82 221.378)" fill="#fec230"/>
    <circle id="Ellipse_1034" data-name="Ellipse 1034" cx="42.948" cy="42.948" r="42.948" transform="translate(1021.344 458.77) rotate(-28.663)" fill="#f68389"/>
    <path id="Path_6693" data-name="Path 6693" d="M765.872,296.788h62.016l.636-8.9,3.18,8.9h9.549l1.26-17.647,6.3,17.647h18.477v-.874a46.391,46.391,0,0,0-46.338-46.338h-8.744a46.391,46.391,0,0,0-46.339,46.339Z" transform="translate(253.361 175.821)" fill="#2f2e41"/>
    <path id="Path_6694" data-name="Path 6694" d="M831.679,326.356l26.465-8.587V253.5H808.156l1.238,1.236C826.612,271.933,845.763,332.945,831.679,326.356Z" transform="translate(279.605 178.257)" fill="#2f2e41"/>
    <g id="Group_135" data-name="Group 135" transform="translate(632.467 -127.043)">
      <path id="Subtraction_4" data-name="Subtraction 4" d="M4.806,6.126A4.82,4.82,0,0,1,.18,0H9.435a4.868,4.868,0,0,1,.179,1.311A4.817,4.817,0,0,1,4.806,6.126Z" transform="translate(409 611.002)" fill="#2f2e41"/>
      <path id="Subtraction_5" data-name="Subtraction 5" d="M4.806,6.126A4.82,4.82,0,0,1,.18,0H9.435a4.868,4.868,0,0,1,.179,1.311A4.817,4.817,0,0,1,4.806,6.126Z" transform="translate(438.781 611.002)" fill="#2f2e41"/>
    </g>
  </g>
</svg>
